<svg id="Layer_1" enable-background="new 0 0 512.011 512.011" height="512" viewBox="0 0 512.011 512.011" width="512" xmlns="http://www.w3.org/2000/svg"><g><g clip-rule="evenodd" fill-rule="evenodd"><path d="m333.546 195.23c8.844 8.843 8.844 23.314 0 32.158l-18.99 18.99 26.799 26.799c7.861 7.861 20.724 7.861 28.586 0l85.757-85.757c39.305-39.305 39.305-103.622 0-142.927l-28.586-28.586c-7.861-7.861-20.724-7.861-28.585 0l-142.928 142.927c-7.861 7.861-7.861 20.724 0 28.585l26.799 26.799 18.99-18.99c8.843-8.843 23.314-8.843 32.158.002z" fill="#66e0f7"/><path d="m333.546 227.388c8.843-8.844 8.843-23.315 0-32.158-8.844-8.844-23.315-8.844-32.159-.001l-18.99 18.99 32.159 32.159z" fill="#ff764e"/><path d="m314.556 246.378-32.159-32.159-249 249c-8.844 8.844-8.844 23.315.001 32.159 8.843 8.843 23.314 8.843 32.158 0z" fill="#ffda8f"/></g><g><path d="m462.769 37.421-28.587-28.586c-11.779-11.779-30.947-11.78-42.727 0l-39.647 39.647c-3.905 3.905-3.905 10.237 0 14.143 3.906 3.904 10.236 3.904 14.143 0l39.647-39.647c3.98-3.982 10.46-3.982 14.442 0l28.586 28.586c35.506 35.506 35.506 93.279 0 128.785l-85.757 85.757c-1.913 1.913-4.478 2.967-7.222 2.967s-5.309-1.054-7.222-2.967l-19.728-19.728 11.919-11.919c6.166-6.166 9.562-14.388 9.562-23.15s-3.396-16.984-9.563-23.15c-12.766-12.766-33.535-12.766-46.301 0l-11.918 11.918-19.728-19.728c-1.913-1.913-2.967-4.478-2.967-7.222 0-2.743 1.053-5.308 2.967-7.221l39.642-39.642c3.905-3.905 3.905-10.237 0-14.143-3.906-3.904-10.236-3.904-14.143 0l-39.641 39.642c-5.691 5.69-8.826 13.277-8.826 21.363s3.135 15.673 8.825 21.364l19.728 19.728-241.927 241.929c-6.166 6.166-9.562 14.388-9.562 23.151s3.396 16.984 9.563 23.149c6.165 6.167 14.387 9.563 23.15 9.563s16.984-3.396 23.15-9.562l241.929-241.928 19.728 19.728c5.691 5.69 13.278 8.825 21.364 8.825s15.673-3.135 21.364-8.825l85.757-85.757c43.303-43.305 43.303-113.766 0-157.07zm-154.31 164.88c2.483-2.483 5.745-3.726 9.008-3.726s6.524 1.242 9.008 3.726h.001c4.967 4.967 4.967 13.049 0 18.016l-11.919 11.919-18.016-18.016zm-249.974 286.006c-4.967 4.965-13.05 4.967-18.017 0-4.968-4.967-4.968-13.05 0-18.017l241.929-241.928 18.016 18.016z"/><path d="m320.656 95.058c1.869 1.558 4.139 2.317 6.396 2.317 2.864 0 5.709-1.226 7.688-3.599l.005-.006c3.535-4.242 2.959-10.545-1.283-14.081-4.244-3.534-10.552-2.959-14.087 1.284-3.535 4.244-2.962 10.549 1.281 14.085z"/></g></g></svg>