<svg id="Capa_1" enable-background="new 0 0 511.988 511.988" height="512" viewBox="0 0 511.988 511.988" width="512" xmlns="http://www.w3.org/2000/svg"><g><path d="m424.781 279.509c-10.993 5.724-17.822 17.017-17.822 29.472v15.946c0 4.143 3.357 7.5 7.5 7.5s7.5-3.357 7.5-7.5v-15.947c0-6.841 3.736-13.036 9.75-16.167 39.018-20.314 64.046-60.117 65.318-103.875 2.098-72.169-58.801-129.636-129.827-124.406-2.373.174-4.68-1.09-5.892-3.222-21.506-37.817-61.86-61.31-105.314-61.31-43.453 0-83.807 23.492-105.312 61.31-1.212 2.132-3.543 3.401-5.895 3.223-71.018-5.218-131.848 52.204-129.829 124.272 1.225 43.728 26.258 83.554 65.33 103.937 6.01 3.135 9.742 9.328 9.742 16.163v114.895h-1.021c-9.927 0-18.003 8.076-18.003 18.003v52.183c0 9.928 8.076 18.004 18.003 18.004h149.484c4.143 0 7.5-3.357 7.5-7.5s-3.357-7.5-7.5-7.5h-149.484c-1.656 0-3.003-1.348-3.003-3.004v-52.183c0-1.656 1.347-3.003 3.003-3.003h333.97c1.656 0 3.003 1.347 3.003 3.003v52.183c0 1.656-1.347 3.004-3.003 3.004h-149.485c-4.143 0-7.5 3.357-7.5 7.5s3.357 7.5 7.5 7.5h149.485c9.927 0 18.003-8.076 18.003-18.004v-52.183c0-9.066-6.874-18.003-19.023-18.003 0-78.929 0 12.324 0-63.872 0-4.143-3.357-7.5-7.5-7.5s-7.5 3.357-7.5 7.5v29.705h-38.42v-101.91c0-4.143-3.357-7.5-7.5-7.5s-7.5 3.357-7.5 7.5v101.91h-37.522v-101.91c0-4.143-3.357-7.5-7.5-7.5s-7.5 3.357-7.5 7.5v101.91h-37.522v-101.91c0-4.143-3.357-7.5-7.5-7.5s-7.5 3.357-7.5 7.5v101.91h-37.521v-101.91c0-4.143-3.357-7.5-7.5-7.5s-7.5 3.357-7.5 7.5v101.91h-37.524v-101.91c0-4.143-3.357-7.5-7.5-7.5s-7.5 3.357-7.5 7.5v101.91h-38.42v-80.728c0-12.443-6.821-23.732-17.804-29.462-34.255-17.87-56.201-52.761-57.274-91.058-1.808-64.561 52.809-113.372 113.735-108.894 8.102.608 15.976-3.631 20.033-10.767 18.846-33.138 54.202-53.724 92.274-53.724s73.43 20.587 92.275 53.726c4.058 7.136 11.916 11.371 20.03 10.766 60.924-4.468 115.614 44.322 113.733 109.012-1.113 38.327-23.051 73.199-57.251 91.005zm-17.822 125.123v19.167h-301.929v-19.167z"/></g></svg>